<svg width="16" height="16" viewBox="0 0 16 16" fill="none" xmlns="http://www.w3.org/2000/svg">
<path fill-rule="evenodd" clip-rule="evenodd" d="M2 3.5C2 2.67157 2.67157 2 3.5 2H12.5C13.3284 2 14 2.67157 14 3.5V9.5C14 10.3284 13.3284 11 12.5 11H8.41421L5.70711 13.7071C5.42111 13.9931 5 13.7018 5 13.2929V11H3.5C2.67157 11 2 10.3284 2 9.5V3.5ZM4.5 5.75C4.5 5.33579 4.83579 5 5.25 5H10.75C11.1642 5 11.5 5.33579 11.5 5.75C11.5 6.16421 11.1642 6.5 10.75 6.5H5.25C4.83579 6.5 4.5 6.16421 4.5 5.75ZM5.25 7.5C4.83579 7.5 4.5 7.83579 4.5 8.25C4.5 8.66421 4.83579 9 5.25 9H8.75C9.16421 9 9.5 8.66421 9.5 8.25C9.5 7.83579 9.16421 7.5 8.75 7.5H5.25Z" fill="context-fill"/>
</svg>
