<svg xmlns="http://www.w3.org/2000/svg" viewBox="0 0 64 64" fill="none" stroke="currentColor" stroke-width="2.4" stroke-linecap="round" stroke-linejoin="round"><path d="M32 14v-6"/><circle class="cs-mascot-spark" cx="32" cy="6" r="2.6" fill="currentColor" stroke="none"/><rect x="12" y="14" width="40" height="30" rx="10" fill="currentColor" stroke="none" opacity="0.2"/><rect x="12" y="14" width="40" height="30" rx="10"/><rect x="18" y="20" width="28" height="18" rx="6"/><path d="M23 30q2.5-3 5 0M36 30q2.5-3 5 0"/><path d="M30 34h4"/><path d="M12 26h-4v8h4M52 26h4v8h-4"/><path class="cs-mascot-blush" d="M20.5 35h2M41.5 35h2"/><path d="M22 44v4h20v-4"/><path d="M18 60v-6a6 6 0 0 1 6-6h16a6 6 0 0 1 6 6v6" fill="currentColor" stroke="none" opacity="0.2"/><path d="M18 60v-6a6 6 0 0 1 6-6h16a6 6 0 0 1 6 6v6"/><path d="M28 54h8"/></svg>
